<?xml version="1.0" encoding="UTF-8" standalone="no"?>
<!-- Created with Inkscape (http://www.inkscape.org/) -->

<svg
   xmlns:dc="http://purl.org/dc/elements/1.1/"
   xmlns:cc="http://creativecommons.org/ns#"
   xmlns:rdf="http://www.w3.org/1999/02/22-rdf-syntax-ns#"
   xmlns:svg="http://www.w3.org/2000/svg"
   xmlns="http://www.w3.org/2000/svg"
   xmlns:sodipodi="http://sodipodi.sourceforge.net/DTD/sodipodi-0.dtd"
   xmlns:inkscape="http://www.inkscape.org/namespaces/inkscape"
   width="700"
   height="700"
   viewBox="0 0 1696.5954 1696.5954"
   id="svg17830"
   version="1.1"
   inkscape:version="0.92.3 (2405546, 2018-03-11)"
   sodipodi:docname="animal-planet-logo.svg"
   inkscape:export-filename="C:\Users\alex\sites\animal-planet-logo-0.png"
   inkscape:export-xdpi="561.73712"
   inkscape:export-ydpi="561.73712">
  <title
     id="title882">2018 Animal Planet logo</title>
  <defs
     id="defs17832" />
  <sodipodi:namedview
     id="base"
     pagecolor="#ffffff"
     bordercolor="#666666"
     borderopacity="1.0"
     inkscape:pageopacity="0.0"
     inkscape:pageshadow="2"
     inkscape:zoom="0.35355339"
     inkscape:cx="129.1368"
     inkscape:cy="417.49003"
     inkscape:document-units="px"
     inkscape:current-layer="layer1"
     showgrid="false"
     fit-margin-top="0"
     fit-margin-left="0"
     fit-margin-right="0"
     fit-margin-bottom="0"
     inkscape:window-width="1600"
     inkscape:window-height="838"
     inkscape:window-x="-8"
     inkscape:window-y="-8"
     inkscape:window-maximized="1"
     inkscape:showpageshadow="false">
    <inkscape:grid
       type="xygrid"
       id="grid17860"
       empspacing="5"
       visible="true"
       enabled="true"
       snapvisiblegridlinesonly="true"
       originx="127.84375px"
       originy="1389px" />
  </sodipodi:namedview>
  <metadata
     id="metadata17835">
    <rdf:RDF>
      <cc:Work
         rdf:about="">
        <dc:format>image/svg+xml</dc:format>
        <dc:type
           rdf:resource="http://purl.org/dc/dcmitype/StillImage" />
        <dc:title>2018 Animal Planet logo</dc:title>
        <cc:license
           rdf:resource="http://scripts.sil.org/OFL" />
      </cc:Work>
      <cc:License
         rdf:about="http://scripts.sil.org/OFL">
        <cc:permits
           rdf:resource="http://scripts.sil.org/pub/OFL/Reproduction" />
        <cc:permits
           rdf:resource="http://scripts.sil.org/pub/OFL/Distribution" />
        <cc:permits
           rdf:resource="http://scripts.sil.org/pub/OFL/Embedding" />
        <cc:permits
           rdf:resource="http://scripts.sil.org/pub/OFL/DerivativeWorks" />
        <cc:requires
           rdf:resource="http://scripts.sil.org/pub/OFL/Notice" />
        <cc:requires
           rdf:resource="http://scripts.sil.org/pub/OFL/Attribution" />
        <cc:requires
           rdf:resource="http://scripts.sil.org/pub/OFL/ShareAlike" />
        <cc:requires
           rdf:resource="http://scripts.sil.org/pub/OFL/DerivativeRenaming" />
        <cc:requires
           rdf:resource="http://scripts.sil.org/pub/OFL/BundlingWhenSelling" />
      </cc:License>
    </rdf:RDF>
  </metadata>
  <g
     inkscape:label="Layer 1"
     inkscape:groupmode="layer"
     id="layer1"
     transform="translate(127.84375,-744.76678)">
    <path
       style="fill:#000000;fill-opacity:1;stroke:none;stroke-width:1.3870312"
       d="m 77.80643,1855.7889 c -31.37197,0 -50.86817,25.324 -50.86817,53.205 0,32.1154 23.24641,54.8231 51.40737,54.8231 20.75243,0 33.61254,-15.0989 33.61254,-15.0989 v 11.5035 h 32.95347 v -100.6577 h -32.95347 v 12.4626 c 0,0 -11.20265,-16.2376 -34.15174,-16.2376 z m 9.7063,27.801 c 14.90451,0 25.40412,14.7833 25.40412,25.9433 0,15.2843 -11.91094,25.7037 -25.40412,25.7037 -12.84192,0 -26.12315,-8.6841 -26.12315,-25.5235 0,-13.3332 10.99537,-26.1235 26.12315,-26.1235 z"
       id="path17862-8"
       inkscape:connector-curvature="0"
       inkscape:export-filename="C:\Users\alex\sites\animal-planet-logo-4.png"
       inkscape:export-xdpi="67.100418"
       inkscape:export-ydpi="67.100418" />
    <path
       style="fill:#000000;fill-opacity:1;stroke:none;stroke-width:1.3870312"
       d="m 168.51828,1960.1977 v -100.6583 h 33.16919 v 13.2026 c 0,0 11.02482,-17.0395 35.38885,-17.0395 27.53136,0 36.89306,17.4523 36.89306,39.3075 v 65.1877 h -33.16917 v -53.6844 c 0,-16.9693 -6.55006,-23.9548 -17.46438,-23.9548 -12.49763,0 -21.64836,10.8042 -21.64836,27.7894 v 49.8498 z"
       id="path17866-0"
       inkscape:connector-curvature="0"
       sodipodi:nodetypes="ccccccccccccc"
       inkscape:export-filename="C:\Users\alex\sites\animal-planet-logo-4.png"
       inkscape:export-xdpi="67.100418"
       inkscape:export-ydpi="67.100418" />
    <path
       style="fill:#000000;fill-opacity:1;stroke:none;stroke-width:1.3870312"
       d="m 295.63479,1960.1977 v -100.6583 h 33.5526 v 100.6583 z"
       id="path17869-1"
       inkscape:connector-curvature="0"
       sodipodi:nodetypes="ccccc"
       inkscape:export-filename="C:\Users\alex\sites\animal-planet-logo-4.png"
       inkscape:export-xdpi="67.100418"
       inkscape:export-ydpi="67.100418" />
    <circle
       style="fill:#000000;fill-opacity:1;stroke:none;stroke-width:1.91729152"
       id="path17871-9"
       cx="312.68256"
       cy="1822.2046"
       r="19.505583"
       inkscape:export-filename="C:\Users\alex\sites\animal-planet-logo-4.png"
       inkscape:export-xdpi="67.100418"
       inkscape:export-ydpi="67.100418" />
    <path
       sodipodi:nodetypes="cccccccccccccccccccc"
       inkscape:connector-curvature="0"
       id="path17873-9"
       d="m 458.02939,1912.2651 v 47.9326 h -33.16917 v -53.6844 c 0,-16.9693 -6.55005,-23.9548 -17.46438,-23.9548 -12.49763,0 -21.64834,10.8042 -21.64834,27.7894 v 49.8498 h -33.16916 v -100.6583 h 33.16916 v 13.2026 c 0,0 11.0248,-17.0395 35.38879,-17.0395 16.88741,0 26.93853,6.5658 32.18623,16.6867 0,0 10.83442,-16.7916 38.68139,-16.7916 26.1188,0 38.88258,15.8907 38.88258,37.4945 v 67.1056 h -33.16917 v -53.6844 c 0,-13.0917 -5.15371,-24.2674 -17.47614,-24.2674 -12.59409,0 -22.21179,11.3552 -22.21179,30.0192 z"
       style="fill:#000000;fill-opacity:1;stroke:none;stroke-width:1.3870312"
       inkscape:export-filename="C:\Users\alex\sites\animal-planet-logo-4.png"
       inkscape:export-xdpi="67.100418"
       inkscape:export-ydpi="67.100418" />
    <path
       id="path17877-9"
       d="m 594.80127,1855.7889 c -31.3719,0 -50.86815,25.324 -50.86815,53.205 0,32.1154 23.24644,54.8231 51.4074,54.8231 20.75235,0 33.61253,-15.0989 33.61253,-15.0989 v 11.5035 h 32.95343 v -100.6577 h -32.95343 v 12.4626 c 0,0 -11.20263,-16.2376 -34.15178,-16.2376 z m 9.70627,27.801 c 14.90457,0 25.40415,14.7833 25.40415,25.9433 0,15.2843 -11.91092,25.7037 -25.40415,25.7037 -12.84185,0 -26.12309,-8.6841 -26.12309,-25.5235 0,-13.3332 10.99534,-26.1235 26.12309,-26.1235 z"
       style="fill:#000000;fill-opacity:1;stroke:none;stroke-width:1.3870312"
       inkscape:connector-curvature="0"
       inkscape:export-filename="C:\Users\alex\sites\animal-planet-logo-4.png"
       inkscape:export-xdpi="67.100418"
       inkscape:export-ydpi="67.100418" />
    <path
       sodipodi:nodetypes="ccccc"
       inkscape:connector-curvature="0"
       id="path17879-8"
       d="m 685.45199,1960.1977 v -140.9231 h 33.5526 v 140.9231 z"
       style="fill:#000000;fill-opacity:1;stroke:none;stroke-width:1.3870312"
       inkscape:export-filename="C:\Users\alex\sites\animal-planet-logo-4.png"
       inkscape:export-xdpi="67.100418"
       inkscape:export-ydpi="67.100418" />
    <path
       inkscape:connector-curvature="0"
       style="fill:#000000;fill-opacity:1;stroke:none;stroke-width:1.3870312"
       d="m 1015.3122,1855.7889 c -31.37186,0 -50.86806,25.324 -50.86806,53.205 0,32.1154 23.2464,54.8231 51.40726,54.8231 20.7524,0 33.6126,-15.0989 33.6126,-15.0989 v 11.5035 h 32.9535 v -100.6577 h -32.9535 v 12.4626 c 0,0 -11.2026,-16.2376 -34.1518,-16.2376 z m 9.7062,27.801 c 14.9047,0 25.4042,14.7833 25.4042,25.9433 0,15.2843 -11.9109,25.7037 -25.4042,25.7037 -12.8418,0 -26.12296,-8.6841 -26.12296,-25.5235 0,-13.3332 10.99536,-26.1235 26.12296,-26.1235 z"
       id="path17881-5"
       inkscape:export-filename="C:\Users\alex\sites\animal-planet-logo-4.png"
       inkscape:export-xdpi="67.100418"
       inkscape:export-ydpi="67.100418" />
    <path
       style="fill:#000000;fill-opacity:1;stroke:none;stroke-width:1.3870312"
       d="m 916.79554,1960.1977 v -140.9231 h 33.5527 v 140.9231 z"
       id="path17883-9"
       inkscape:connector-curvature="0"
       sodipodi:nodetypes="ccccc"
       inkscape:export-filename="C:\Users\alex\sites\animal-planet-logo-4.png"
       inkscape:export-xdpi="67.100418"
       inkscape:export-ydpi="67.100418" />
    <path
       id="path17885-4"
       d="m 852.63204,1855.7889 c 31.37188,0 50.86812,25.324 50.86812,53.205 0,32.1154 -23.24642,54.8231 -51.40734,54.8231 -20.75237,0 -33.61256,-15.0989 -33.61256,-15.0989 v 51.7421 h -32.95344 v -140.8963 h 32.95344 v 12.4626 c 0,0 11.2026,-16.2376 34.15178,-16.2376 z m -9.70622,27.801 c -14.90461,0 -25.40423,14.7833 -25.40423,25.9433 0,15.2843 11.91093,25.7037 25.40423,25.7037 12.84186,0 26.123,-8.6841 26.123,-25.5235 0,-13.3332 -10.99531,-26.1235 -26.123,-26.1235 z"
       style="fill:#000000;fill-opacity:1;stroke:none;stroke-width:1.3870312"
       inkscape:connector-curvature="0"
       sodipodi:nodetypes="sssccccccssssss"
       inkscape:export-filename="C:\Users\alex\sites\animal-planet-logo-4.png"
       inkscape:export-xdpi="67.100418"
       inkscape:export-ydpi="67.100418" />
    <path
       sodipodi:nodetypes="ccccccccccccc"
       inkscape:connector-curvature="0"
       id="path17887-5"
       d="m 1106.0741,1960.1977 v -100.6583 h 33.1692 v 13.2026 c 0,0 11.0246,-17.0395 35.3887,-17.0395 27.5314,0 36.8932,17.4523 36.8932,39.3075 v 65.1877 h -33.1692 v -53.6844 c 0,-16.9693 -6.5502,-23.9548 -17.4644,-23.9548 -12.4977,0 -21.6483,10.8042 -21.6483,27.7894 v 49.8498 z"
       style="fill:#000000;fill-opacity:1;stroke:none;stroke-width:1.3870312"
       inkscape:export-filename="C:\Users\alex\sites\animal-planet-logo-4.png"
       inkscape:export-xdpi="67.100418"
       inkscape:export-ydpi="67.100418" />
    <path
       style="fill:#000000;fill-opacity:1;stroke:none;stroke-width:1.3870312"
       d="m 1278.8101,1855.7889 c -31.3877,0 -53.9838,20.2953 -53.9838,53.9846 0,32.9487 22.8319,53.9234 60.0951,53.9234 18.3858,0 36.5485,-8.2089 36.5485,-8.2089 l -7.3697,-23.8453 c 0,0 -12.3916,6.3506 -26.4826,6.3506 -17.7035,0 -25.9469,-9.9553 -28.1602,-18.9928 h 72.8571 c 1.0301,-34.3925 -13.1932,-63.2116 -53.5044,-63.2116 z m 1.4379,24.2062 c 11.6333,0 20.0264,8.1546 21.5303,18.8733 h -42.8601 c 1.1976,-11.5187 11.8074,-18.8733 21.3298,-18.8733 z"
       id="path17889-4"
       inkscape:connector-curvature="0"
       sodipodi:nodetypes="sssccsccssccs"
       inkscape:export-filename="C:\Users\alex\sites\animal-planet-logo-4.png"
       inkscape:export-xdpi="67.100418"
       inkscape:export-ydpi="67.100418" />
    <path
       style="fill:#000000;fill-opacity:1;stroke:none;stroke-width:1.3870312"
       d="m 1387.9158,1835.5733 v 23.9661 h 23.0075 v 25.8832 h -23.0075 v 40.2637 c 0,8.2298 3.3529,12.2503 13.146,12.2503 4.3894,0 10.054,-1.4752 10.054,-1.4752 l 2.8538,23.9596 c 0,0 -7.3751,2.9937 -20.9231,2.9937 -25.2759,0 -38.6831,-12.458 -38.6831,-35.8117 v -42.1804 h -14.9547 v -25.8832 h 14.9547 v -23.9661 z"
       id="path17893-0"
       inkscape:connector-curvature="0"
       sodipodi:nodetypes="ccccccccccccccccc"
       inkscape:export-filename="C:\Users\alex\sites\animal-planet-logo-4.png"
       inkscape:export-xdpi="67.100418"
       inkscape:export-ydpi="67.100418" />
    <path
       style="fill:#0073ff;fill-opacity:1;stroke:none;stroke-width:1.3870312"
       d="m 803.49545,1185.6687 v 159.7305 c 0,0 24.80558,20.3024 36.60486,36.6048 -60.76688,-39.6457 -125.32652,-56.2984 -203.82864,-56.2984 -129.22591,0 -246.88628,59.8727 -304.97512,158.9718 l 7.49779,14.0924 c 0,0 25.27626,-30.3888 83.67737,-60.1946 -63.78953,62.927 -90.50725,113.1256 -129.728,228.8704 l 62.21572,61.9603 c 81.40395,-91.0803 201.17089,-151.2598 336.3738,-151.2598 127.93288,0 245.73461,57.2565 319.38257,133.3743 l 67.0193,-67.2209 c -37.5704,-64.2974 -86.35626,-123.5981 -125.13426,-164.7697 40.1212,22.9118 104.17696,36.017 165.36376,36.017 107.0431,0 185.6985,-57.6354 185.6985,-136.1091 0,-96.6699 -82.8824,-155.5006 -218.0688,-177.8702 l -21.8611,36.6759 c 68.0328,12.1326 173.8721,51.7297 173.8721,122.4669 0,38.8029 -30.0176,71.3499 -73.2664,71.3499 -53.4515,0 -97.8417,-59.6075 -124.8156,-112.2439 l -41.28296,-0.9942 c -47.3811,-58.6314 -123.97955,-115.8476 -194.74489,-133.1534 z"
       id="path17895-7"
       inkscape:connector-curvature="0"
       sodipodi:nodetypes="cccccccccccccccccccccc"
       inkscape:export-filename="C:\Users\alex\sites\animal-planet-logo-4.png"
       inkscape:export-xdpi="67.100418"
       inkscape:export-ydpi="67.100418" />
  </g>
</svg>
